<?xml version="1.0" standalone="no"?><!DOCTYPE svg PUBLIC "-//W3C//DTD SVG 1.1//EN" "http://www.w3.org/Graphics/SVG/1.1/DTD/svg11.dtd"><svg t="1590492654644" class="icon" viewBox="0 0 1024 1024" version="1.1" xmlns="http://www.w3.org/2000/svg" p-id="2116" xmlns:xlink="http://www.w3.org/1999/xlink" width="200" height="200"><defs><style type="text/css"></style></defs><path d="M798.255 394.474v46.545c0 11.637-9.31 20.946-20.945 20.946s-20.946-9.31-20.946-20.945v-46.546H267.636v46.545c0 11.637-9.31 20.946-20.945 20.946s-20.946-9.31-20.946-20.945v-46.546h-80.29c-38.4 0-66.328 37.236-54.692 73.31l91.928 292.072h691.2l105.89-339.782c1.164-4.654 1.164-8.145 1.164-12.8-9.309-8.145-22.109-12.8-36.073-12.8H798.255zM680.727 728.437H530.618c-11.636 0-20.945-9.31-20.945-20.945s9.309-20.946 20.945-20.946h150.109c11.636 0 20.946 9.31 20.946 20.945s-9.31 20.946-20.946 20.946z m117.527 0h-31.418c-11.637 0-20.946-9.31-20.946-20.945s9.31-20.946 20.946-20.946h31.418c11.636 0 20.945 9.31 20.945 20.945s-9.309 20.946-20.945 20.946z m-584.145 128l13.964 43.054-13.964-43.054zM207.127 833.165l6.982 24.436 13.963 43.055c2.328 6.982 5.819 13.964 10.473 19.782h556.218c18.618 0 33.746-11.637 39.564-29.091l10.472-33.746 6.982-24.436H207.127zM446.836 144.292h164.073c10.473 0 19.782-8.145 19.782-19.782 0-10.473-9.31-19.782-19.782-19.782H446.836c-3.49 5.819-5.818 12.8-5.818 19.782 0 6.982 2.327 13.964 5.818 19.782z" fill="" p-id="2117"></path><path d="M878.545 856.437l-13.964 43.054z m129.165-496.872a81.57 81.57 0 0 0-66.327-33.745H798.255V171.055c0-37.236-37.236-67.49-81.454-67.49h-48.873c-8.146-23.274-30.255-39.564-57.018-39.564H414.255c-25.6 0-47.71 16.29-57.018 39.563h-48.873c-45.382 0-81.454 30.255-81.454 67.491V325.82H83.782c-26.764 0-50.037 11.636-66.327 33.746-15.128 20.944-19.782 47.708-12.8 73.308l146.618 468.945c10.473 34.91 41.89 58.182 77.964 58.182h565.527c36.072 0 67.49-23.273 77.963-58.182l146.618-470.109c8.146-24.436 4.655-51.2-11.636-72.145zM414.255 104.729h195.491c10.473 0 19.782 8.145 19.782 19.782 0 10.472-9.31 19.782-19.782 19.782H415.418c-10.473 0-19.782-8.146-19.782-19.782 0-10.473 8.146-19.782 18.618-19.782z m-146.619 66.327c0-13.964 18.618-26.764 40.727-26.764h48.873c8.145 23.273 30.255 39.564 57.018 39.564h195.491c25.6 0 47.71-16.29 57.018-39.564h48.873c22.11 0 40.727 12.8 40.727 26.764V325.82H267.636V171.056z m585.309 662.109l-6.982 24.436-11.636 32.582c-5.818 17.455-20.946 29.091-39.564 29.091H229.236c-18.618 0-33.745-11.636-39.564-29.09l-26.763-89.601h699.345l-9.31 32.582z m128-413.091L875.054 759.856H150.109L44.219 420.074c-3.492-12.8-1.164-25.6 5.817-36.073 8.146-10.472 20.946-17.454 33.746-17.454h143.127v74.472c0 11.637 9.309 20.946 20.945 20.946s20.946-9.31 20.946-20.945v-74.474h489.89v74.473c0 11.636 9.31 20.945 20.946 20.945s20.946-9.309 20.946-20.945v-74.473h143.127c12.8 0 25.6 5.818 32.582 16.29 5.818 6.983 8.145 15.128 8.145 24.437-1.163 4.655-2.327 9.31-3.49 12.8z" fill="" p-id="2118"></path><path d="M680.727 687.71H530.618c-11.636 0-20.945 9.31-20.945 20.945s9.309 20.946 20.945 20.946h150.109c11.636 0 20.946-9.31 20.946-20.945s-9.31-20.946-20.946-20.946z m117.528 0h-31.418c-11.637 0-20.946 9.31-20.946 20.945s9.31 20.946 20.946 20.946h31.418c11.636 0 20.945-9.31 20.945-20.945s-9.309-20.946-20.945-20.946z" fill="" p-id="2119"></path></svg>